<svg width="30" height="30" viewBox="0 0 30 30" fill="none" xmlns="http://www.w3.org/2000/svg">
<rect width="30" height="30" fill="#1E1E1E"/>
<rect width="30" height="30" rx="10" fill="#FF395C"/>
<path fill-rule="evenodd" clip-rule="evenodd" d="M15 5.065C15.992 5.065 16.899 5.508 17.678 6.228C19.138 7.577 20.45 9.925 21.521 12.271C22.61 14.656 23.515 17.185 24.121 19.02C24.793 21.053 23.914 23.218 22.117 24.296C21.1859 24.8571 20.0872 25.0729 19.0131 24.9058C17.9389 24.7388 16.9577 24.1994 16.241 23.382C15.8263 22.9073 15.4126 22.4316 15 21.955C14.576 22.445 14.152 22.932 13.758 23.382C13.0414 24.1991 12.0604 24.7384 10.9864 24.9054C9.9125 25.0725 8.81401 24.8568 7.88302 24.296C6.08602 23.218 5.20702 21.053 5.87902 19.02C6.48502 17.185 7.39002 14.656 8.47902 12.271C9.55002 9.925 10.86 7.577 12.32 6.228C13.1 5.508 14.007 5.065 14.999 5.065H15ZM16.316 20.419C16.946 19.674 17.486 19.018 17.8 18.599C18.74 17.346 18.981 15.749 18.514 14.419C18.028 13.035 16.787 11.999 15 11.999C13.213 11.999 11.972 13.035 11.486 14.419C11.019 15.749 11.259 17.346 12.2 18.599C12.513 19.018 13.053 19.674 13.684 20.419C13.204 20.975 12.712 21.539 12.254 22.065C11.8461 22.5295 11.2877 22.8358 10.6768 22.9301C10.0658 23.0245 9.44107 22.9009 8.91202 22.581C7.87802 21.961 7.41402 20.749 7.77802 19.647C8.37302 17.847 9.25202 15.393 10.298 13.102C11.361 10.772 12.536 8.752 13.678 7.697C14.194 7.221 14.639 7.065 15 7.065C15.36 7.065 15.805 7.221 16.322 7.697C17.464 8.752 18.638 10.773 19.702 13.102C20.748 15.393 21.627 17.847 22.222 19.647C22.586 20.749 22.122 21.96 21.088 22.581C20.5591 22.9006 19.9346 23.024 19.3238 22.9297C18.7131 22.8354 18.1549 22.5293 17.747 22.065C17.287 21.54 16.796 20.975 16.316 20.419ZM15 18.877C14.5881 18.3945 14.1879 17.902 13.8 17.4C13.24 16.654 13.137 15.751 13.373 15.082C13.59 14.464 14.099 14 15 14C15.9 14 16.41 14.464 16.627 15.082C16.862 15.752 16.759 16.654 16.2 17.4C15.8124 17.9023 15.4123 18.3948 15 18.877Z" fill="#FFFDFD"/>
</svg>
