<svg width="30" height="30" viewBox="0 0 30 30" fill="none" xmlns="http://www.w3.org/2000/svg">
<path d="M11.709 3.82227C9.21112 4.68881 7.05695 6.33353 5.5629 8.51485C4.06885 10.6962 3.31368 13.2991 3.40831 15.9413C3.50294 18.5836 4.44239 21.1258 6.08865 23.1947C7.73492 25.2635 10.0012 26.7499 12.5547 27.4356C14.6249 27.9697 16.7938 27.9932 18.875 27.5039C20.7604 27.0804 22.5035 26.1745 23.9336 24.875C25.4221 23.4812 26.5024 21.708 27.0586 19.7461C27.6632 17.6126 27.7707 15.369 27.3731 13.1875H15.7481V18.0098H22.4805C22.3459 18.7789 22.0576 19.513 21.6327 20.168C21.2079 20.8231 20.6552 21.3858 20.0078 21.8223C19.1857 22.3661 18.259 22.732 17.2871 22.8965C16.3124 23.0777 15.3126 23.0777 14.3379 22.8965C13.35 22.6922 12.4155 22.2845 11.5938 21.6992C10.2738 20.7648 9.2826 19.4374 8.76175 17.9063C8.23209 16.3465 8.23209 14.6555 8.76175 13.0957C9.1325 12.0024 9.74541 11.0069 10.5547 10.1836C11.4809 9.22412 12.6534 8.53828 13.9437 8.20132C15.234 7.86437 16.5921 7.88932 17.8692 8.27344C18.8668 8.57967 19.779 9.11473 20.5332 9.83594C21.2923 9.08073 22.0502 8.32357 22.8067 7.56446C23.1973 7.15625 23.6231 6.76758 24.0078 6.34961C22.8566 5.27828 21.5053 4.44465 20.0313 3.89649C17.3471 2.92186 14.4101 2.89567 11.709 3.82227Z" fill="white"/>
<path d="M11.709 3.82227C14.4099 2.89504 17.3469 2.92054 20.0312 3.89454C21.5055 4.44642 22.8562 5.28407 24.0059 6.35938C23.6152 6.77735 23.2031 7.16798 22.8047 7.57423C22.0469 8.33074 21.2897 9.08464 20.5332 9.83594C19.779 9.11473 18.8667 8.57968 17.8691 8.27344C16.5925 7.88798 15.2344 7.86158 13.9438 8.19716C12.6532 8.53274 11.4799 9.21731 10.5527 10.1758C9.74342 10.9991 9.13052 11.9946 8.75977 13.0879L4.71094 9.95313C6.16017 7.07923 8.66943 4.88091 11.709 3.82227Z" fill="#E33629"/>
<path d="M3.63671 13.0586C3.85433 11.9801 4.21563 10.9356 4.71093 9.95312L8.75976 13.0957C8.2301 14.6555 8.2301 16.3465 8.75976 17.9063C7.4108 18.9479 6.06119 19.9948 4.71093 21.0469C3.47099 18.5787 3.09283 15.7666 3.63671 13.0586Z" fill="#F8BD00"/>
<path d="M15.7481 13.1855H27.3731C27.7707 15.3671 27.6631 17.6107 27.0586 19.7441C26.5024 21.706 25.422 23.4792 23.9336 24.873C22.627 23.8535 21.3145 22.8418 20.0078 21.8223C20.6556 21.3853 21.2085 20.8221 21.6334 20.1663C22.0583 19.5105 22.3464 18.7757 22.4805 18.0059H15.7481C15.7461 16.4004 15.7481 14.793 15.7481 13.1855Z" fill="#587DBD"/>
<path d="M4.70898 21.0469C6.05924 20.0052 7.40885 18.9583 8.75781 17.9062C9.2797 19.4379 10.2723 20.7654 11.5938 21.6992C12.418 22.2818 13.3546 22.6862 14.3438 22.8867C15.3185 23.068 16.3182 23.068 17.293 22.8867C18.2648 22.7222 19.1916 22.3563 20.0137 21.8125C21.3203 22.832 22.6328 23.8438 23.9395 24.8633C22.5096 26.1635 20.7664 27.0701 18.8809 27.4941C16.7996 27.9834 14.6307 27.96 12.5605 27.4258C10.9232 26.9886 9.3939 26.218 8.06836 25.1621C6.66535 24.0482 5.51944 22.6445 4.70898 21.0469Z" fill="#319F43"/>
</svg>
